<?xml version="1.0" encoding="utf-8"?>
<!-- Generator: Adobe Illustrator 18.1.1, SVG Export Plug-In . SVG Version: 6.00 Build 0)  -->
<svg version="1.1" id="Ebene_1" xmlns="http://www.w3.org/2000/svg" xmlns:xlink="http://www.w3.org/1999/xlink" x="0px" y="0px"
	 width="1282px" height="792px" viewBox="0 0 1282 792" enable-background="new 0 0 1282 792" xml:space="preserve">
<line opacity="0.15" fill="none" stroke="#888888" stroke-width="18" stroke-miterlimit="10" x1="48.7" y1="527.4" x2="1272.6" y2="527.4"/>
<line opacity="0.15" fill="none" stroke="#888888" stroke-width="18" stroke-miterlimit="10" x1="48.7" y1="640.4" x2="1269.6" y2="640.4"/>
<line opacity="0.15" fill="none" stroke="#888888" stroke-width="18" stroke-miterlimit="10" x1="48.7" y1="761.4" x2="1269.6" y2="761.4"/>
<line opacity="0.15" fill="none" stroke="#888888" stroke-width="18" stroke-miterlimit="10" x1="48.7" y1="414.4" x2="1272.6" y2="414.4"/>
<line opacity="0.15" fill="none" stroke="#888888" stroke-width="18" stroke-miterlimit="10" x1="48.7" y1="301.4" x2="1272.6" y2="301.4"/>
<line opacity="0.15" fill="none" stroke="#888888" stroke-width="18" stroke-miterlimit="10" x1="48.7" y1="190.4" x2="1269.6" y2="190.4"/>
<g>
	<path fill="#888888" d="M31.8,557.7c0,1.3-0.5,2.3-1.4,3c-0.9,0.7-2.2,1.1-3.9,1.1c-1.7,0-3-0.4-3.9-1.1c-0.9-0.7-1.4-1.7-1.4-3
		c0-1.3,0.5-2.4,1.5-3.1v-0.1c-0.7,0.1-1.3,0.2-1.7,0.2h-3.7v-2.2h14.4v1.7l-1.3,0.4v0.1C31.3,555.3,31.8,556.3,31.8,557.7z
		 M30.1,557.1c0-0.9-0.3-1.5-0.8-2s-1.3-0.6-2.5-0.6h-0.3c-1.3,0-2.2,0.2-2.8,0.6c-0.5,0.4-0.8,1.1-0.8,2c0,0.8,0.3,1.4,0.9,1.8
		c0.6,0.4,1.5,0.6,2.7,0.6c1.1,0,2-0.2,2.6-0.6C29.8,558.5,30.1,557.9,30.1,557.1z"/>
	<path fill="#888888" d="M31.8,544.8c0,1.6-0.5,2.8-1.4,3.7c-0.9,0.9-2.2,1.3-3.8,1.3c-1.7,0-3-0.4-4-1.3s-1.4-2-1.4-3.4
		c0-1.4,0.4-2.4,1.2-3.2s2-1.2,3.4-1.2H27v6.8c1,0,1.8-0.3,2.3-0.8c0.5-0.5,0.8-1.2,0.8-2.1c0-0.6-0.1-1.2-0.2-1.7
		c-0.1-0.5-0.3-1.1-0.6-1.7h1.8c0.3,0.5,0.4,1.1,0.5,1.6C31.8,543.5,31.8,544.1,31.8,544.8z M22.8,545.2c0,0.7,0.2,1.2,0.7,1.7
		s1.1,0.7,1.9,0.7V543c-0.8,0-1.5,0.2-1.9,0.6C23.1,544,22.8,544.5,22.8,545.2z"/>
	<path fill="#888888" d="M31.6,536l-10.3,3.9v-2.3l6-2.1c1-0.4,1.8-0.6,2.4-0.6v-0.1c-0.4-0.1-1.3-0.3-2.4-0.6l-6-2.1v-2.3l10.3,3.9
		V536z"/>
	<path fill="#888888" d="M31.8,523.7c0,1.6-0.5,2.8-1.4,3.7c-0.9,0.9-2.2,1.3-3.8,1.3c-1.7,0-3-0.4-4-1.3s-1.4-2-1.4-3.4
		c0-1.4,0.4-2.4,1.2-3.2s2-1.2,3.4-1.2H27v6.8c1,0,1.8-0.3,2.3-0.8c0.5-0.5,0.8-1.2,0.8-2.1c0-0.6-0.1-1.2-0.2-1.7
		c-0.1-0.5-0.3-1.1-0.6-1.7h1.8c0.3,0.5,0.4,1.1,0.5,1.6C31.8,522.4,31.8,523,31.8,523.7z M22.8,524.1c0,0.7,0.2,1.2,0.7,1.7
		s1.1,0.7,1.9,0.7v-4.7c-0.8,0-1.5,0.2-1.9,0.6C23.1,522.8,22.8,523.4,22.8,524.1z"/>
	<path fill="#888888" d="M31.6,515v2.2H17.2V515H31.6z"/>
	<path fill="#888888" d="M26.5,502.8c1.7,0,3,0.4,3.9,1.3c0.9,0.9,1.4,2.1,1.4,3.6c0,1-0.2,1.8-0.6,2.5c-0.4,0.7-1.1,1.3-1.9,1.7
		s-1.8,0.6-2.8,0.6c-1.7,0-3-0.4-3.9-1.3s-1.4-2.1-1.4-3.6c0-1.5,0.5-2.7,1.4-3.5C23.6,503.3,24.9,502.8,26.5,502.8z M26.5,510.3
		c2.4,0,3.6-0.9,3.6-2.6c0-1.7-1.2-2.6-3.6-2.6c-2.3,0-3.5,0.9-3.5,2.6c0,0.9,0.3,1.6,0.9,2C24.5,510.1,25.4,510.3,26.5,510.3z"/>
	<path fill="#888888" d="M31.8,495.1c0,1.3-0.5,2.3-1.4,3v0.1c0.9-0.1,1.4-0.1,1.6-0.1h4.2v2.2H21.4v-1.8c0.2,0,0.6-0.2,1.4-0.3
		v-0.1c-1-0.7-1.6-1.7-1.6-3.1c0-1.3,0.5-2.3,1.4-3c0.9-0.7,2.2-1.1,3.9-1.1s3,0.4,3.9,1.1C31.4,492.8,31.8,493.8,31.8,495.1z
		 M23,495.6c0,0.9,0.3,1.5,0.8,1.9c0.5,0.4,1.3,0.6,2.4,0.6h0.3c1.2,0,2.2-0.2,2.7-0.6c0.6-0.4,0.8-1,0.8-1.9c0-0.8-0.3-1.3-0.9-1.7
		c-0.6-0.4-1.5-0.6-2.6-0.6c-1.2,0-2,0.2-2.6,0.6C23.3,494.3,23,494.9,23,495.6z"/>
</g>
<g>
	<path fill="#888888" d="M31.6,317.7v2.2h-6.3c-0.8,0-1.4,0.2-1.8,0.5c-0.4,0.3-0.6,0.8-0.6,1.5c0,0.9,0.3,1.6,0.8,2
		c0.5,0.4,1.5,0.6,2.8,0.6h5.1v2.2H17.2v-2.2h3.7c0.6,0,1.2,0,1.9,0.1v-0.1c-0.5-0.3-0.9-0.7-1.2-1.2c-0.3-0.5-0.4-1.1-0.4-1.9
		c0-2.5,1.3-3.7,3.8-3.7H31.6z"/>
	<path fill="#888888" d="M26.5,305.5c1.7,0,3,0.4,3.9,1.3c0.9,0.9,1.4,2.1,1.4,3.6c0,1-0.2,1.8-0.6,2.5c-0.4,0.7-1.1,1.3-1.9,1.7
		c-0.8,0.4-1.8,0.6-2.8,0.6c-1.7,0-3-0.4-3.9-1.3s-1.4-2.1-1.4-3.6c0-1.5,0.5-2.7,1.4-3.5C23.6,306,24.9,305.5,26.5,305.5z
		 M26.5,313c2.4,0,3.6-0.9,3.6-2.6c0-1.7-1.2-2.6-3.6-2.6c-2.3,0-3.5,0.9-3.5,2.6c0,0.9,0.3,1.6,0.9,2C24.5,312.8,25.4,313,26.5,313
		z"/>
	<path fill="#888888" d="M30.1,299.2c0-0.5-0.1-1.1-0.3-1.6h1.6c0.1,0.2,0.2,0.6,0.3,0.9c0.1,0.4,0.1,0.8,0.1,1.2
		c0,2.1-1.1,3.1-3.3,3.1H23v1.4h-1l-0.8-1.5l-2.2-0.7v-1.3h2.3v-2.9H23v2.9h5.5c0.5,0,0.9-0.1,1.2-0.4
		C29.9,300,30.1,299.6,30.1,299.2z"/>
	<path fill="#888888" d="M23,290.4v2.5h8.6v2.2H23v1.7h-1l-0.7-1.7h-0.7c-1.2,0-2.1-0.3-2.7-0.9c-0.6-0.6-0.9-1.4-0.9-2.6
		c0-0.8,0.1-1.5,0.4-2.3l1.7,0.6c-0.2,0.5-0.3,1.1-0.3,1.5c0,0.5,0.2,0.9,0.5,1.1c0.3,0.2,0.8,0.3,1.4,0.3h0.7v-2.5H23z M18.7,288.8
		c-0.4,0-0.7-0.1-0.9-0.3c-0.2-0.2-0.3-0.5-0.3-0.9c0-0.4,0.1-0.7,0.3-0.9c0.2-0.2,0.5-0.3,0.9-0.3c0.4,0,0.7,0.1,0.9,0.3
		c0.2,0.2,0.3,0.5,0.3,0.9c0,0.4-0.1,0.7-0.3,0.9C19.3,288.7,19,288.8,18.7,288.8z M31.6,286.5v2.2H21.4v-2.2H31.6z"/>
	<path fill="#888888" d="M26.4,281.1l-5,3.4V282l3.6-2.3l-3.6-2.4v-2.5l5,3.5l5.2-3.6v2.5l-3.8,2.5l3.8,2.5v2.5L26.4,281.1z"/>
</g>
<g>
	<path fill="#888888" d="M21.2,440.9c0-0.4,0-0.8,0.1-1.1l2,0.2c-0.1,0.3-0.1,0.6-0.1,1c0,0.9,0.3,1.6,0.9,2.1s1.3,0.8,2.2,0.8h5.4
		v2.2H21.4v-1.7l1.8-0.3V444c-0.6-0.3-1.1-0.8-1.5-1.3C21.4,442.1,21.2,441.5,21.2,440.9z"/>
	<path fill="#888888" d="M31.8,433.4c0,1.6-0.5,2.8-1.4,3.7c-0.9,0.9-2.2,1.3-3.8,1.3c-1.7,0-3-0.4-4-1.3s-1.4-2-1.4-3.4
		c0-1.4,0.4-2.4,1.2-3.2c0.8-0.8,2-1.2,3.4-1.2H27v6.8c1,0,1.8-0.3,2.3-0.8c0.5-0.5,0.8-1.2,0.8-2.1c0-0.6-0.1-1.2-0.2-1.7
		c-0.1-0.5-0.3-1.1-0.6-1.7h1.8c0.3,0.5,0.4,1.1,0.5,1.6C31.8,432.1,31.8,432.7,31.8,433.4z M22.8,433.8c0,0.7,0.2,1.2,0.7,1.7
		c0.4,0.4,1.1,0.7,1.9,0.7v-4.7c-0.8,0-1.5,0.2-1.9,0.6C23.1,432.6,22.8,433.1,22.8,433.8z"/>
	<path fill="#888888" d="M31.6,424.8v2.2H17.2v-2.2H31.6z"/>
	<path fill="#888888" d="M31.8,417.2c0,1.6-0.5,2.8-1.4,3.7c-0.9,0.9-2.2,1.3-3.8,1.3c-1.7,0-3-0.4-4-1.3s-1.4-2-1.4-3.4
		c0-1.4,0.4-2.4,1.2-3.2s2-1.2,3.4-1.2H27v6.8c1,0,1.8-0.3,2.3-0.8c0.5-0.5,0.8-1.2,0.8-2.1c0-0.6-0.1-1.2-0.2-1.7
		c-0.1-0.5-0.3-1.1-0.6-1.7h1.8c0.3,0.5,0.4,1.1,0.5,1.6C31.8,415.9,31.8,416.5,31.8,417.2z M22.8,417.6c0,0.7,0.2,1.2,0.7,1.7
		c0.4,0.4,1.1,0.7,1.9,0.7v-4.7c-0.8,0-1.5,0.2-1.9,0.6C23.1,416.3,22.8,416.9,22.8,417.6z"/>
	<path fill="#888888" d="M31.6,404.3l-1.4,0.4v0.1c0.6,0.5,1,1,1.3,1.5c0.2,0.5,0.3,1.1,0.3,1.9c0,1-0.3,1.8-0.8,2.4
		c-0.5,0.6-1.3,0.8-2.3,0.8c-1.1,0-1.9-0.4-2.4-1.2c-0.5-0.8-0.8-2-0.9-3.6l-0.1-1.8h-0.5c-0.7,0-1.1,0.2-1.5,0.5
		c-0.3,0.3-0.5,0.8-0.5,1.4c0,0.5,0.1,1,0.2,1.5s0.3,0.9,0.5,1.4l-1.6,0.7c-0.3-0.6-0.5-1.2-0.7-1.8s-0.2-1.3-0.2-1.9
		c0-1.3,0.3-2.3,0.9-3c0.6-0.7,1.5-1,2.7-1h6.9V404.3z M30.2,407.5c0-0.8-0.2-1.4-0.7-1.9s-1.1-0.7-1.9-0.7h-0.9l0.1,1.3
		c0,1,0.2,1.8,0.5,2.2c0.3,0.5,0.8,0.7,1.4,0.7c0.5,0,0.8-0.1,1.1-0.4C30,408.5,30.2,408.1,30.2,407.5z"/>
	<path fill="#888888" d="M28.7,392.8c1,0,1.8,0.4,2.3,1.1c0.5,0.7,0.8,1.8,0.8,3.1c0,1.4-0.2,2.5-0.6,3.3h-1.9
		c0.6-1.2,0.8-2.3,0.8-3.4c0-1.3-0.4-2-1.2-2c-0.3,0-0.5,0.1-0.6,0.2s-0.4,0.4-0.5,0.7c-0.2,0.3-0.4,0.8-0.6,1.4
		c-0.5,1.2-0.9,2-1.4,2.4c-0.5,0.4-1.1,0.6-1.8,0.6c-0.9,0-1.6-0.4-2-1.1c-0.5-0.7-0.7-1.7-0.7-2.9c0-1.2,0.2-2.3,0.7-3.4l1.6,0.7
		c-0.5,1.1-0.7,2-0.7,2.8c0,1.2,0.3,1.7,1,1.7c0.3,0,0.6-0.1,0.8-0.5c0.2-0.3,0.5-1,0.9-2c0.3-0.8,0.6-1.5,0.9-1.8
		c0.3-0.4,0.6-0.7,0.9-0.9C27.8,392.9,28.2,392.8,28.7,392.8z"/>
	<path fill="#888888" d="M31.8,386c0,1.6-0.5,2.8-1.4,3.7c-0.9,0.9-2.2,1.3-3.8,1.3c-1.7,0-3-0.4-4-1.3c-1-0.8-1.4-2-1.4-3.4
		c0-1.4,0.4-2.4,1.2-3.2s2-1.2,3.4-1.2H27v6.8c1,0,1.8-0.3,2.3-0.8c0.5-0.5,0.8-1.2,0.8-2.1c0-0.6-0.1-1.2-0.2-1.7
		c-0.1-0.5-0.3-1.1-0.6-1.7h1.8c0.3,0.5,0.4,1.1,0.5,1.6C31.8,384.6,31.8,385.3,31.8,386z M22.8,386.4c0,0.7,0.2,1.2,0.7,1.7
		c0.4,0.4,1.1,0.7,1.9,0.7v-4.7c-0.8,0-1.5,0.2-1.9,0.6C23.1,385.1,22.8,385.7,22.8,386.4z"/>
</g>
<g>
	<path fill="#888888" d="M23,767.3v2.5h8.6v2.2H23v1.7h-1l-0.7-1.7h-0.7c-1.2,0-2.1-0.3-2.7-0.9c-0.6-0.6-0.9-1.4-0.9-2.6
		c0-0.8,0.1-1.5,0.4-2.3l1.7,0.6c-0.2,0.5-0.3,1.1-0.3,1.5c0,0.5,0.2,0.9,0.5,1.1c0.3,0.2,0.8,0.3,1.4,0.3h0.7v-2.5H23z"/>
	<path fill="#888888" d="M31.8,761c0,1.6-0.5,2.8-1.4,3.7c-0.9,0.9-2.2,1.3-3.8,1.3c-1.7,0-3-0.4-4-1.3s-1.4-2-1.4-3.4
		c0-1.4,0.4-2.4,1.2-3.2c0.8-0.8,2-1.2,3.4-1.2H27v6.8c1,0,1.8-0.3,2.3-0.8c0.5-0.5,0.8-1.2,0.8-2.1c0-0.6-0.1-1.2-0.2-1.7
		c-0.1-0.5-0.3-1.1-0.6-1.7h1.8c0.3,0.5,0.4,1.1,0.5,1.6C31.8,759.7,31.8,760.3,31.8,761z M22.8,761.4c0,0.7,0.2,1.2,0.7,1.7
		c0.4,0.4,1.1,0.7,1.9,0.7v-4.7c-0.8,0-1.5,0.2-1.9,0.6C23.1,760.2,22.8,760.8,22.8,761.4z"/>
	<path fill="#888888" d="M31.6,748.2l-1.4,0.4v0.1c0.6,0.5,1,1,1.3,1.5c0.2,0.5,0.3,1.1,0.3,1.9c0,1-0.3,1.8-0.8,2.4
		c-0.5,0.6-1.3,0.8-2.3,0.8c-1.1,0-1.9-0.4-2.4-1.2s-0.8-2-0.9-3.6l-0.1-1.8h-0.5c-0.7,0-1.1,0.2-1.5,0.5c-0.3,0.3-0.5,0.8-0.5,1.4
		c0,0.5,0.1,1,0.2,1.5s0.3,0.9,0.5,1.4l-1.6,0.7c-0.3-0.6-0.5-1.2-0.7-1.8s-0.2-1.3-0.2-1.9c0-1.3,0.3-2.3,0.9-3
		c0.6-0.7,1.5-1,2.7-1h6.9V748.2z M30.2,751.4c0-0.8-0.2-1.4-0.7-1.9c-0.4-0.5-1.1-0.7-1.9-0.7h-0.9l0.1,1.3c0,1,0.2,1.8,0.5,2.2
		c0.3,0.5,0.8,0.7,1.4,0.7c0.5,0,0.8-0.1,1.1-0.4C30,752.4,30.2,752,30.2,751.4z"/>
	<path fill="#888888" d="M30.1,739.7c0-0.5-0.1-1.1-0.3-1.6h1.6c0.1,0.2,0.2,0.6,0.3,0.9s0.1,0.8,0.1,1.2c0,2.1-1.1,3.1-3.3,3.1H23
		v1.4h-1l-0.8-1.5l-2.2-0.7v-1.3h2.3v-2.9H23v2.9h5.5c0.5,0,0.9-0.1,1.2-0.4C29.9,740.5,30.1,740.2,30.1,739.7z"/>
	<path fill="#888888" d="M31.6,728.9l-1.3,0.3v0.1c0.5,0.3,0.9,0.7,1.1,1.3c0.3,0.6,0.4,1.2,0.4,1.9c0,1.2-0.3,2.2-0.9,2.8
		c-0.6,0.6-1.6,0.9-2.8,0.9h-6.7V734h6.3c0.8,0,1.4-0.2,1.8-0.5c0.4-0.3,0.6-0.8,0.6-1.5c0-0.9-0.3-1.6-0.8-2
		c-0.5-0.4-1.5-0.6-2.8-0.6h-5.1v-2.2h10.3V728.9z"/>
	<path fill="#888888" d="M21.2,718.8c0-0.4,0-0.8,0.1-1.1l2,0.2c-0.1,0.3-0.1,0.6-0.1,1c0,0.9,0.3,1.6,0.9,2.1s1.3,0.8,2.2,0.8h5.4
		v2.2H21.4v-1.7l1.8-0.3v-0.1c-0.6-0.3-1.1-0.8-1.5-1.3C21.4,720,21.2,719.5,21.2,718.8z"/>
	<path fill="#888888" d="M31.8,711.4c0,1.6-0.5,2.8-1.4,3.7c-0.9,0.9-2.2,1.3-3.8,1.3c-1.7,0-3-0.4-4-1.3s-1.4-2-1.4-3.4
		c0-1.4,0.4-2.4,1.2-3.2c0.8-0.8,2-1.2,3.4-1.2H27v6.8c1,0,1.8-0.3,2.3-0.8c0.5-0.5,0.8-1.2,0.8-2.1c0-0.6-0.1-1.2-0.2-1.7
		c-0.1-0.5-0.3-1.1-0.6-1.7h1.8c0.3,0.5,0.4,1.1,0.5,1.6C31.8,710,31.8,710.7,31.8,711.4z M22.8,711.8c0,0.7,0.2,1.2,0.7,1.7
		c0.4,0.4,1.1,0.7,1.9,0.7v-4.7c-0.8,0-1.5,0.2-1.9,0.6C23.1,710.5,22.8,711.1,22.8,711.8z"/>
	<path fill="#888888" d="M21.2,694.7c0-1.3,0.5-2.3,1.4-3s2.2-1.1,3.9-1.1c1.7,0,3,0.4,3.9,1.1c0.9,0.7,1.4,1.7,1.4,3
		c0,1.3-0.5,2.3-1.4,3v0.1l1.2,0.4v1.6H17.2v-2.2h3.4c0.3,0,0.6,0,1.1,0s0.8,0,1,0.1v-0.1C21.7,697.1,21.2,696.1,21.2,694.7z
		 M23,695.3c0,0.9,0.3,1.5,0.8,1.9c0.5,0.4,1.4,0.6,2.6,0.6h0.1c1.2,0,2.2-0.2,2.7-0.6c0.6-0.4,0.8-1,0.8-1.9c0-0.8-0.3-1.4-0.9-1.8
		c-0.6-0.4-1.5-0.6-2.7-0.6C24.1,692.9,23,693.7,23,695.3z"/>
	<path fill="#888888" d="M21.2,682.9c0-0.4,0-0.8,0.1-1.1l2,0.2c-0.1,0.3-0.1,0.6-0.1,1c0,0.9,0.3,1.6,0.9,2.1
		c0.6,0.5,1.3,0.8,2.2,0.8h5.4v2.2H21.4v-1.7l1.8-0.3V686c-0.6-0.3-1.1-0.8-1.5-1.3C21.4,684.1,21.2,683.5,21.2,682.9z"/>
	<path fill="#888888" d="M31.6,673.5l-1.4,0.4v0.1c0.6,0.5,1,1,1.3,1.5c0.2,0.5,0.3,1.1,0.3,1.9c0,1-0.3,1.8-0.8,2.4
		c-0.5,0.6-1.3,0.8-2.3,0.8c-1.1,0-1.9-0.4-2.4-1.2c-0.5-0.8-0.8-2-0.9-3.6l-0.1-1.8h-0.5c-0.7,0-1.1,0.2-1.5,0.5
		c-0.3,0.3-0.5,0.8-0.5,1.4c0,0.5,0.1,1,0.2,1.5s0.3,0.9,0.5,1.4l-1.6,0.7c-0.3-0.6-0.5-1.2-0.7-1.8s-0.2-1.3-0.2-1.9
		c0-1.3,0.3-2.3,0.9-3c0.6-0.7,1.5-1,2.7-1h6.9V673.5z M30.2,676.8c0-0.8-0.2-1.4-0.7-1.9s-1.1-0.7-1.9-0.7h-0.9l0.1,1.3
		c0,1,0.2,1.8,0.5,2.2c0.3,0.5,0.8,0.7,1.4,0.7c0.5,0,0.8-0.1,1.1-0.4C30,677.7,30.2,677.3,30.2,676.8z"/>
	<path fill="#888888" d="M31.6,659.9v2.2h-6.3c-0.8,0-1.4,0.2-1.8,0.5s-0.6,0.8-0.6,1.5c0,0.9,0.3,1.6,0.8,2
		c0.5,0.4,1.5,0.6,2.7,0.6h5.1v2.2H21.4v-1.7l1.3-0.3v-0.1c-0.5-0.3-0.9-0.7-1.1-1.3c-0.3-0.6-0.4-1.2-0.4-1.9
		c0-2.5,1.3-3.7,3.8-3.7H31.6z"/>
	<path fill="#888888" d="M31.8,652.7c0,1.6-0.5,2.7-1.4,3.5c-0.9,0.8-2.2,1.2-3.9,1.2c-1.7,0-3.1-0.4-4-1.3
		c-0.9-0.8-1.4-2.1-1.4-3.7c0-1.1,0.2-2.1,0.6-2.9l1.8,0.7c-0.4,0.9-0.5,1.7-0.5,2.3c0,1.8,1.2,2.7,3.5,2.7c1.2,0,2-0.2,2.6-0.7
		s0.9-1.1,0.9-1.9c0-1-0.2-1.9-0.7-2.8h1.9c0.2,0.4,0.4,0.8,0.5,1.2S31.8,652.1,31.8,652.7z"/>
	<path fill="#888888" d="M31.6,638.4v2.2h-6.3c-0.8,0-1.4,0.2-1.8,0.5s-0.6,0.8-0.6,1.5c0,0.9,0.3,1.6,0.8,2
		c0.5,0.4,1.5,0.6,2.8,0.6h5.1v2.2H17.2v-2.2h3.7c0.6,0,1.2,0,1.9,0.1v-0.1c-0.5-0.3-0.9-0.7-1.2-1.2c-0.3-0.5-0.4-1.1-0.4-1.9
		c0-2.5,1.3-3.7,3.8-3.7H31.6z"/>
	<path fill="#888888" d="M31.8,630.9c0,1.6-0.5,2.8-1.4,3.7c-0.9,0.9-2.2,1.3-3.8,1.3c-1.7,0-3-0.4-4-1.3c-1-0.8-1.4-2-1.4-3.4
		c0-1.4,0.4-2.4,1.2-3.2s2-1.2,3.4-1.2H27v6.8c1,0,1.8-0.3,2.3-0.8c0.5-0.5,0.8-1.2,0.8-2.1c0-0.6-0.1-1.2-0.2-1.7
		c-0.1-0.5-0.3-1.1-0.6-1.7h1.8c0.3,0.5,0.4,1.1,0.5,1.6C31.8,629.6,31.8,630.2,31.8,630.9z M22.8,631.3c0,0.7,0.2,1.2,0.7,1.7
		c0.4,0.4,1.1,0.7,1.9,0.7V629c-0.8,0-1.5,0.2-1.9,0.6C23.1,630.1,22.8,630.6,22.8,631.3z"/>
	<path fill="#888888" d="M28.7,617.5c1,0,1.8,0.4,2.3,1.1c0.5,0.7,0.8,1.8,0.8,3.1c0,1.4-0.2,2.5-0.6,3.3h-1.9
		c0.6-1.2,0.8-2.3,0.8-3.4c0-1.3-0.4-2-1.2-2c-0.3,0-0.5,0.1-0.6,0.2s-0.4,0.4-0.5,0.7c-0.2,0.3-0.4,0.8-0.6,1.4
		c-0.5,1.2-0.9,2-1.4,2.4c-0.5,0.4-1.1,0.6-1.8,0.6c-0.9,0-1.6-0.4-2-1.1c-0.5-0.7-0.7-1.7-0.7-2.9c0-1.2,0.2-2.3,0.7-3.4l1.6,0.7
		c-0.5,1.1-0.7,2-0.7,2.8c0,1.2,0.3,1.7,1,1.7c0.3,0,0.6-0.1,0.8-0.5c0.2-0.3,0.5-1,0.9-2c0.3-0.8,0.6-1.5,0.9-1.8
		c0.3-0.4,0.6-0.7,0.9-0.9C27.8,617.6,28.2,617.5,28.7,617.5z"/>
</g>
<g>
	<path fill="#888888" d="M31.6,210.7v2.2h-6.3c-0.8,0-1.4,0.1-1.8,0.4s-0.6,0.8-0.6,1.4c0,0.8,0.3,1.5,0.8,1.9
		c0.5,0.4,1.5,0.6,2.7,0.6h5.1v2.2H21.4v-1.7l1.3-0.3v-0.1c-0.5-0.3-0.9-0.7-1.1-1.2c-0.3-0.5-0.4-1.1-0.4-1.8
		c0-1.6,0.5-2.6,1.6-3.1v-0.1c-0.5-0.3-0.9-0.7-1.2-1.3c-0.3-0.6-0.4-1.2-0.4-1.9c0-1.2,0.3-2.1,0.9-2.7c0.6-0.6,1.6-0.8,2.8-0.8
		h6.7v2.2h-6.3c-0.8,0-1.4,0.1-1.8,0.4c-0.4,0.3-0.6,0.8-0.6,1.4c0,0.8,0.3,1.5,0.8,1.9c0.5,0.4,1.3,0.6,2.4,0.6H31.6z"/>
	<path fill="#888888" d="M31.6,194.7l-1.4,0.4v0.1c0.6,0.5,1,1,1.3,1.5c0.2,0.5,0.3,1.1,0.3,1.9c0,1-0.3,1.8-0.8,2.4
		c-0.5,0.6-1.3,0.8-2.3,0.8c-1.1,0-1.9-0.4-2.4-1.2c-0.5-0.8-0.8-2-0.9-3.6l-0.1-1.8h-0.5c-0.7,0-1.1,0.2-1.5,0.5
		c-0.3,0.3-0.5,0.8-0.5,1.4c0,0.5,0.1,1,0.2,1.5s0.3,0.9,0.5,1.4l-1.6,0.7c-0.3-0.6-0.5-1.2-0.7-1.8c-0.2-0.7-0.2-1.3-0.2-1.9
		c0-1.3,0.3-2.3,0.9-3c0.6-0.7,1.5-1,2.7-1h6.9V194.7z M30.2,198c0-0.8-0.2-1.4-0.7-1.9c-0.4-0.5-1.1-0.7-1.9-0.7h-0.9l0.1,1.3
		c0,1,0.2,1.8,0.5,2.2c0.3,0.5,0.8,0.7,1.4,0.7c0.5,0,0.8-0.1,1.1-0.4C30,198.9,30.2,198.5,30.2,198z"/>
	<path fill="#888888" d="M28.7,183.2c1,0,1.8,0.4,2.3,1.1c0.5,0.7,0.8,1.8,0.8,3.1c0,1.4-0.2,2.5-0.6,3.3h-1.9
		c0.6-1.2,0.8-2.3,0.8-3.4c0-1.3-0.4-2-1.2-2c-0.3,0-0.5,0.1-0.6,0.2s-0.4,0.4-0.5,0.7c-0.2,0.3-0.4,0.8-0.6,1.4
		c-0.5,1.2-0.9,2-1.4,2.4c-0.5,0.4-1.1,0.6-1.8,0.6c-0.9,0-1.6-0.4-2-1.1c-0.5-0.7-0.7-1.7-0.7-2.9c0-1.2,0.2-2.3,0.7-3.4l1.6,0.7
		c-0.5,1.1-0.7,2-0.7,2.8c0,1.2,0.3,1.7,1,1.7c0.3,0,0.6-0.1,0.8-0.5c0.2-0.3,0.5-1,0.9-2c0.3-0.8,0.6-1.5,0.9-1.8
		c0.3-0.4,0.6-0.7,0.9-0.9C27.8,183.3,28.2,183.2,28.7,183.2z"/>
	<path fill="#888888" d="M30.1,177.1c0-0.5-0.1-1.1-0.3-1.6h1.6c0.1,0.2,0.2,0.6,0.3,0.9c0.1,0.4,0.1,0.8,0.1,1.2
		c0,2.1-1.1,3.1-3.3,3.1H23v1.4h-1l-0.8-1.5l-2.2-0.7v-1.3h2.3v-2.9H23v2.9h5.5c0.5,0,0.9-0.1,1.2-0.4
		C29.9,177.8,30.1,177.5,30.1,177.1z"/>
	<path fill="#888888" d="M31.8,168.9c0,1.6-0.5,2.8-1.4,3.7c-0.9,0.9-2.2,1.3-3.8,1.3c-1.7,0-3-0.4-4-1.3c-1-0.8-1.4-2-1.4-3.4
		c0-1.4,0.4-2.4,1.2-3.2s2-1.2,3.4-1.2H27v6.8c1,0,1.8-0.3,2.3-0.8c0.5-0.5,0.8-1.2,0.8-2.1c0-0.6-0.1-1.2-0.2-1.7
		c-0.1-0.5-0.3-1.1-0.6-1.7h1.8c0.3,0.5,0.4,1.1,0.5,1.6C31.8,167.6,31.8,168.2,31.8,168.9z M22.8,169.3c0,0.7,0.2,1.2,0.7,1.7
		c0.4,0.4,1.1,0.7,1.9,0.7v-4.7c-0.8,0-1.5,0.2-1.9,0.6C23.1,168.1,22.8,168.6,22.8,169.3z"/>
	<path fill="#888888" d="M21.2,157.3c0-0.4,0-0.8,0.1-1.1l2,0.2c-0.1,0.3-0.1,0.6-0.1,1c0,0.9,0.3,1.6,0.9,2.1
		c0.6,0.5,1.3,0.8,2.2,0.8h5.4v2.2H21.4v-1.7l1.8-0.3v-0.1c-0.6-0.3-1.1-0.8-1.5-1.3C21.4,158.5,21.2,157.9,21.2,157.3z"/>
</g>
<circle fill="#11A7FC" cx="254.6" cy="527.4" r="20"/>
<g>
	<g>
		<path fill="none" stroke="#888888" stroke-width="6" stroke-miterlimit="10" d="M596.6,640.4c21.8,0,43.2-3.5,88.1-75.3"/>
		<g>
			<polygon fill="#888888" points="693,574.3 693.6,550.4 672.6,561.8 			"/>
		</g>
	</g>
</g>
<g>
	<g>
		<path fill="none" stroke="#888888" stroke-width="6" stroke-miterlimit="10" d="M751.6,527.4c21.8,0,43.2-3.5,88.1-75.3"/>
		<g>
			<polygon fill="#888888" points="848,461.3 848.6,437.4 827.6,448.8 			"/>
		</g>
	</g>
</g>
<circle fill="#95D127" cx="408.6" cy="640.4" r="20"/>
<circle fill="#95D127" cx="562.6" cy="640.4" r="20"/>
<circle fill="#11A7FC" cx="715.6" cy="527.4" r="20"/>
<circle fill="#11A7FC" cx="562.6" cy="527.4" r="20"/>
<circle fill="#FF8638" cx="1021.6" cy="414.4" r="20"/>
<circle fill="#11A7FC" cx="1021.6" cy="527.4" r="20"/>
<circle fill="#FF8638" cx="868.6" cy="414.4" r="20"/>
<circle fill="#11A7FC" cx="1174.6" cy="526.4" r="20"/>
<circle fill="#EE3551" cx="1174.6" cy="190.4" r="20"/>
<circle fill="#EE3551" cx="562.6" cy="190.4" r="20"/>
<g>
	<g>
		<line fill="none" stroke="#888888" stroke-width="6" stroke-miterlimit="10" x1="290" y1="527" x2="514" y2="527"/>
		<g>
			<polygon fill="#888888" points="511,539.3 531.7,527.4 511,515.4 			"/>
		</g>
	</g>
</g>
<g>
	<g>
		<line fill="none" stroke="#888888" stroke-width="6" stroke-miterlimit="10" x1="752" y1="527" x2="970" y2="527"/>
		<g>
			<polygon fill="#888888" points="967,539.3 987.7,527.4 967,515.4 			"/>
		</g>
	</g>
</g>
<g>
	<g>
		<line fill="none" stroke="#888888" stroke-width="6" stroke-miterlimit="10" x1="131" y1="190" x2="514" y2="190"/>
		<g>
			<polygon fill="#888888" points="511,202.3 531.7,190.4 511,178.4 			"/>
		</g>
	</g>
</g>
<g>
	<g>
		<line fill="none" stroke="#888888" stroke-width="6" stroke-miterlimit="10" x1="593" y1="190" x2="1125" y2="190"/>
		<g>
			<polygon fill="#888888" points="1122,202.3 1142.7,190.4 1122,178.4 			"/>
		</g>
	</g>
</g>
<g>
	<g>
		<line fill="none" stroke="#888888" stroke-width="6" stroke-miterlimit="10" x1="444" y1="640" x2="514" y2="640"/>
		<g>
			<polygon fill="#888888" points="511,652.3 531.7,640.4 511,628.4 			"/>
		</g>
	</g>
</g>
<g>
	<g>
		<line fill="none" stroke="#888888" stroke-width="6" stroke-miterlimit="10" x1="597" y1="527" x2="667" y2="527"/>
		<g>
			<polygon fill="#888888" points="664,539.3 684.7,527.4 664,515.4 			"/>
		</g>
	</g>
</g>
<g>
	<g>
		<line fill="none" stroke="#888888" stroke-width="6" stroke-miterlimit="10" x1="900" y1="414" x2="970" y2="414"/>
		<g>
			<polygon fill="#888888" points="967,426.3 987.7,414.4 967,402.4 			"/>
		</g>
	</g>
</g>
<g>
	<g>
		<line fill="none" stroke="#888888" stroke-width="6" stroke-miterlimit="10" x1="1057" y1="527" x2="1127" y2="527"/>
		<g>
			<polygon fill="#888888" points="1124,539.3 1144.7,527.4 1124,515.4 			"/>
		</g>
	</g>
</g>
<circle fill="#95D127" cx="868.6" cy="761.4" r="20"/>
<polygon fill="#F2E415" points="118,136.7 100.5,158.4 83,136.7 83,16 118,16 "/>
<g>
	<path fill="#888888" d="M109.6,101.9l-13.9,5.3v-2.3l8.3-3c1.9-0.7,3.2-1.1,3.8-1.2v-0.1c-0.4-0.1-1.4-0.4-2.8-0.9
		s-4.5-1.6-9.2-3.3v-2.3l13.9,5.3V101.9z"/>
	<path fill="#888888" d="M100.3,80.6c3.2,0,5.6,0.5,7.2,1.5c1.6,1,2.4,2.6,2.4,4.6c0,2-0.8,3.5-2.4,4.6c-1.6,1-4,1.6-7.1,1.6
		c-3.2,0-5.6-0.5-7.2-1.5c-1.6-1-2.3-2.5-2.3-4.6c0-2,0.8-3.5,2.5-4.6C94.9,81.1,97.2,80.6,100.3,80.6z M100.3,90.8
		c2.7,0,4.7-0.3,5.9-1s1.8-1.6,1.8-3c0-1.4-0.6-2.4-1.9-3.1c-1.2-0.6-3.2-0.9-5.9-0.9s-4.6,0.3-5.9,0.9c-1.2,0.6-1.9,1.6-1.9,3.1
		c0,1.4,0.6,2.4,1.8,3C95.7,90.4,97.6,90.8,100.3,90.8z"/>
	<path fill="#888888" d="M108.3,77.4c-0.6,0-1-0.1-1.3-0.4c-0.3-0.3-0.4-0.6-0.4-1.1c0-0.5,0.1-0.9,0.4-1.1c0.3-0.3,0.7-0.4,1.3-0.4
		c0.6,0,1,0.1,1.3,0.4c0.3,0.3,0.4,0.7,0.4,1.1c0,0.4-0.1,0.8-0.4,1.1C109.3,77.2,108.9,77.4,108.3,77.4z"/>
	<path fill="#888888" d="M109.6,58.9v12.2h-1.8l-4.9-4.9c-1.5-1.5-2.6-2.5-3.2-2.9c-0.6-0.5-1.3-0.8-1.9-1.1s-1.3-0.4-2-0.4
		c-1,0-1.8,0.3-2.4,0.9c-0.6,0.6-0.9,1.4-0.9,2.5c0,0.8,0.1,1.5,0.4,2.2c0.3,0.7,0.7,1.5,1.4,2.3l-1.4,1.1c-1.4-1.7-2.1-3.6-2.1-5.6
		c0-1.7,0.4-3.1,1.3-4.1c0.9-1,2.1-1.5,3.6-1.5c1.2,0,2.3,0.3,3.5,1c1.2,0.7,2.6,1.9,4.4,3.7l4,4.1h0.1v-9.5H109.6z"/>
</g>
<polygon fill="#F2E415" points="1192,131.7 1174.5,153.4 1157,131.7 1157,11 1192,11 "/>
<g>
	<path fill="#888888" d="M1183.6,96.9l-13.9,5.3v-2.3l8.3-3c1.9-0.7,3.2-1.1,3.8-1.2v-0.1c-0.4-0.1-1.4-0.4-2.8-0.9
		s-4.5-1.6-9.2-3.3v-2.3l13.9,5.3V96.9z"/>
	<path fill="#888888" d="M1183.6,80.1v2.1h-13.2c-1.1,0-2.1,0-3.1-0.1c0.2,0.2,0.4,0.4,0.6,0.6c0.2,0.2,1,1.2,2.5,3l-1.4,1.1
		l-3.8-4.9v-1.8H1183.6z"/>
	<path fill="#888888" d="M1182.3,72.4c-0.6,0-1-0.1-1.3-0.4c-0.3-0.3-0.4-0.6-0.4-1.1c0-0.5,0.1-0.9,0.4-1.1
		c0.3-0.3,0.7-0.4,1.3-0.4c0.6,0,1,0.1,1.3,0.4c0.3,0.3,0.4,0.7,0.4,1.1c0,0.4-0.1,0.8-0.4,1.1C1183.3,72.2,1182.9,72.4,1182.3,72.4
		z"/>
	<path fill="#888888" d="M1174.3,53.8c3.2,0,5.6,0.5,7.2,1.5c1.6,1,2.4,2.6,2.4,4.6c0,2-0.8,3.5-2.4,4.6c-1.6,1-4,1.6-7.1,1.6
		c-3.2,0-5.6-0.5-7.2-1.5c-1.6-1-2.3-2.5-2.3-4.6c0-2,0.8-3.5,2.5-4.6C1168.9,54.3,1171.2,53.8,1174.3,53.8z M1174.3,64
		c2.7,0,4.7-0.3,5.9-1s1.8-1.6,1.8-3c0-1.4-0.6-2.4-1.9-3.1c-1.2-0.6-3.2-0.9-5.9-0.9s-4.6,0.3-5.9,0.9c-1.2,0.6-1.9,1.6-1.9,3.1
		c0,1.4,0.6,2.4,1.8,3C1169.7,63.7,1171.6,64,1174.3,64z"/>
</g>
<polygon fill="#F2E415" points="580,131.7 562.5,153.4 545,131.7 545,11 580,11 "/>
<g>
	<path fill="#888888" d="M571.6,122.6l-13.9,5.3v-2.3l8.3-3c1.9-0.7,3.2-1.1,3.8-1.2v-0.1c-0.4-0.1-1.4-0.4-2.8-0.9
		s-4.5-1.6-9.2-3.3v-2.3l13.9,5.3V122.6z"/>
	<path fill="#888888" d="M562.3,101.3c3.2,0,5.6,0.5,7.2,1.5c1.6,1,2.4,2.6,2.4,4.6c0,2-0.8,3.5-2.4,4.6c-1.6,1-4,1.6-7.1,1.6
		c-3.2,0-5.6-0.5-7.2-1.5c-1.6-1-2.3-2.5-2.3-4.6c0-2,0.8-3.5,2.5-4.6C556.9,101.8,559.2,101.3,562.3,101.3z M562.3,111.4
		c2.7,0,4.7-0.3,5.9-1s1.8-1.6,1.8-3c0-1.4-0.6-2.4-1.9-3.1c-1.2-0.6-3.2-0.9-5.9-0.9s-4.6,0.3-5.9,0.9c-1.2,0.6-1.9,1.6-1.9,3.1
		c0,1.4,0.6,2.4,1.8,3C557.7,111.1,559.6,111.4,562.3,111.4z"/>
	<path fill="#888888" d="M570.3,98c-0.6,0-1-0.1-1.3-0.4s-0.4-0.6-0.4-1.1c0-0.5,0.1-0.9,0.4-1.1s0.7-0.4,1.3-0.4
		c0.6,0,1,0.1,1.3,0.4c0.3,0.3,0.4,0.7,0.4,1.1c0,0.4-0.1,0.8-0.4,1.1S570.9,98,570.3,98z"/>
	<path fill="#888888" d="M571.6,79.6v12.2h-1.8l-4.9-4.9c-1.5-1.5-2.6-2.5-3.2-2.9c-0.6-0.5-1.3-0.8-1.9-1.1s-1.3-0.4-2-0.4
		c-1,0-1.8,0.3-2.4,0.9c-0.6,0.6-0.9,1.4-0.9,2.5c0,0.8,0.1,1.5,0.4,2.2s0.7,1.5,1.4,2.3l-1.4,1.1c-1.4-1.7-2.1-3.6-2.1-5.6
		c0-1.7,0.4-3.1,1.3-4.1c0.9-1,2.1-1.5,3.6-1.5c1.2,0,2.3,0.3,3.5,1c1.2,0.7,2.6,1.9,4.4,3.7l4,4.1h0.1v-9.5H571.6z"/>
	<path fill="#888888" d="M575.6,66.5v11.8H574V66.5H575.6z"/>
	<path fill="#888888" d="M571.6,54.8h-9c-1.1,0-2,0.3-2.5,0.8s-0.8,1.3-0.8,2.4c0,1.5,0.4,2.5,1.2,3.2c0.8,0.7,2.1,1,3.9,1h7.3v2.1
		h-19.8v-2.1h6c0.7,0,1.3,0,1.8,0.1v-0.1c-0.7-0.4-1.2-1-1.6-1.8c-0.4-0.8-0.6-1.6-0.6-2.6c0-1.7,0.4-3,1.2-3.8
		c0.8-0.8,2.1-1.3,3.9-1.3h9.1V54.8z"/>
	<path fill="#888888" d="M559.4,42.1v3.5h12.3v2.1h-12.3v2.5h-1l-0.8-2.5h-0.8c-3.4,0-5.1-1.5-5.1-4.5c0-0.7,0.1-1.6,0.4-2.6
		l1.7,0.5c-0.3,0.8-0.4,1.5-0.4,2.1c0,0.8,0.3,1.4,0.8,1.8c0.5,0.4,1.4,0.6,2.5,0.6h0.9v-3.5H559.4z"/>
	<path fill="#888888" d="M571.6,32.7v2.1h-13.2c-1.1,0-2.1,0-3.1-0.1c0.2,0.2,0.4,0.4,0.6,0.6c0.2,0.2,1,1.2,2.5,3l-1.4,1.1
		l-3.8-4.9v-1.8H571.6z"/>
</g>
<g>
	<g>
		<path fill="none" stroke="#888888" stroke-width="6" stroke-miterlimit="10" d="M291.6,527.4c21.8,0,43.2,3.5,88.1,75.3"/>
		<g>
			<polygon fill="#888888" points="367.6,605.9 388.6,617.4 388,593.4 			"/>
		</g>
	</g>
</g>
<g>
	<g>
		<path fill="none" stroke="#888888" stroke-width="6" stroke-miterlimit="10" d="M1057.6,414.4c21.8,0,43.2,3.5,88.1,75.3"/>
		<g>
			<polygon fill="#888888" points="1133.6,492.9 1154.6,504.4 1154,480.4 			"/>
		</g>
	</g>
</g>
<g>
	<g>
		<path fill="none" stroke="#888888" stroke-width="6" stroke-miterlimit="10" d="M446.6,301.4c21.8,0,43.2-3.5,88.1-75.3"/>
		<g>
			<polygon fill="#888888" points="543,235.3 543.6,211.4 522.6,222.8 			"/>
		</g>
	</g>
</g>
<g>
	<g>
		<path fill="none" stroke="#888888" stroke-width="6" stroke-miterlimit="10" d="M751.6,527.4c61.5,0,42.7,177.4,78.4,215.7"/>
		<g>
			<polygon fill="#888888" points="821.7,751 845.6,750.4 833.1,730 			"/>
		</g>
	</g>
</g>
<g>
	<g>
		<path fill="none" stroke="#888888" stroke-width="6" stroke-miterlimit="10" d="M130.6,190.4c63.5,0,89.7,218.5,116.9,292.3"/>
		<g>
			<polygon fill="#888888" points="235.4,484.2 254.6,498.4 257.3,474.6 			"/>
		</g>
	</g>
</g>
<g>
	<g>
		<path fill="none" stroke="#888888" stroke-width="6" stroke-miterlimit="10" d="M443.6,301.4c62.8,0,72.6,122,96.5,181.5"/>
		<g>
			<polygon fill="#888888" points="528,484.7 547.6,498.4 549.7,474.5 			"/>
		</g>
	</g>
</g>
<g>
	<g>
		<path fill="none" stroke="#888888" stroke-width="6" stroke-miterlimit="10" d="M130.6,190.4c66.1,0,105.6,101.8,231.8,110.4"/>
		<g>
			<polygon fill="#888888" points="358.4,312.4 379.6,301.4 359.4,288.5 			"/>
		</g>
	</g>
</g>
<circle fill="#F2E415" cx="408.6" cy="301.4" r="20"/>
<circle fill="#EE3551" cx="100.6" cy="188.4" r="20"/>
<g>
	<g>
		<path fill="none" stroke="#888888" stroke-width="6" stroke-miterlimit="10" d="M1057.6,414.4c62.8,0,72.6-122,96.5-181.5"/>
		<g>
			<polygon fill="#888888" points="1163.7,241.2 1161.6,217.4 1142,231 			"/>
		</g>
	</g>
</g>
<g>
	<g>
		<path fill="none" stroke="#888888" stroke-width="6" stroke-miterlimit="10" d="M899.6,758.4c62.8,0,72.6-122,96.5-181.5"/>
		<g>
			<polygon fill="#888888" points="1005.7,585.2 1003.6,561.4 984,575 			"/>
		</g>
	</g>
</g>
<g>
</g>
<g>
</g>
<g>
</g>
<g>
</g>
<g>
</g>
<g>
</g>
<g>
</g>
</svg>
